<svg id="visual" viewBox="0 0 900 600" width="900" height="600" xmlns="http://www.w3.org/2000/svg" xmlns:xlink="http://www.w3.org/1999/xlink" version="1.1"><path d="M0 37L82 79L164 67L245 67L327 49L409 73L491 97L573 85L655 49L736 55L818 91L900 73L900 0L818 0L736 0L655 0L573 0L491 0L409 0L327 0L245 0L164 0L82 0L0 0Z" fill="#00cc8e"></path><path d="M0 205L82 163L164 163L245 259L327 235L409 169L491 193L573 295L655 319L736 289L818 205L900 205L900 71L818 89L736 53L655 47L573 83L491 95L409 71L327 47L245 65L164 65L82 77L0 35Z" fill="#00b98a"></path><path d="M0 277L82 325L164 313L245 349L327 307L409 265L491 259L573 397L655 397L736 373L818 253L900 289L900 203L818 203L736 287L655 317L573 293L491 191L409 167L327 233L245 257L164 161L82 161L0 203Z" fill="#00a784"></path><path d="M0 373L82 373L164 379L245 445L327 379L409 337L491 361L573 451L655 505L736 445L818 367L900 349L900 287L818 251L736 371L655 395L573 395L491 257L409 263L327 305L245 347L164 311L82 323L0 275Z" fill="#00957c"></path><path d="M0 601L82 601L164 601L245 601L327 601L409 601L491 601L573 601L655 601L736 601L818 601L900 601L900 347L818 365L736 443L655 503L573 449L491 359L409 335L327 377L245 443L164 377L82 371L0 371Z" fill="#038373"></path></svg>